<?xml version="1.0" encoding="utf-8"?>
<!-- Generator: Adobe Illustrator 24.1.1, SVG Export Plug-In . SVG Version: 6.00 Build 0)  -->
<svg version="1.1" id="Livello_1" xmlns="http://www.w3.org/2000/svg" xmlns:xlink="http://www.w3.org/1999/xlink" x="0px" y="0px"
	 viewBox="0 0 300 212.97" style="enable-background:new 0 0 300 212.97;" xml:space="preserve">
<style type="text/css">
	.st0{fill:#808181;}
	.st1{fill:#FFFFFF;}
</style>
<polygon class="st0" points="245.09,211.97 234.04,211.97 199.37,151.92 185.01,127.04 146.01,59.5 132.36,35.86 118.02,11.03 
	123.55,1.45 137.89,26.28 151.56,49.97 151.56,49.98 196.08,127.08 210.45,151.96 "/>
<polygon class="st1" points="137.89,26.28 132.36,35.86 30.68,211.97 2,211.97 118.02,11.03 123.55,1.45 "/>
<path class="st1" d="M210.45,151.96l-14.37-24.88l-44.52-77.1l-5.55,9.52L57.02,211.97h188.08L210.45,151.96z M115.56,151.65
	l-11.06-0.03l14.42-24.78l11.06,0.03l55.03,0.18l14.36,24.88L115.56,151.65z"/>
<polygon class="st0" points="210.45,151.96 199.37,151.92 185.01,127.04 196.08,127.08 "/>
<path class="st1" d="M261.49,26.86h-0.32l-4.33-0.02l-39.02-0.16h-0.01l-0.52,0l-8.64-0.03h-0.05l-43.29-0.18h-0.6
	c0.05-0.07,0.11-0.15,0.16-0.22l-8.77-15.19l-5.47-9.48l60.95,0.25h0.02l3.46,0.02h0.07c19.1,0.64,35.95,10.37,46.33,24.98
	C261.47,26.84,261.48,26.85,261.49,26.86z"/>
<path class="st1" d="M186.71,113.2c-0.23,0.23-0.45,0.45-0.68,0.68c0.5,0.26,1,0.51,1.51,0.74L186.71,113.2z M261.49,26.86
	c-0.01-0.01-0.02-0.02-0.02-0.03c-10.39-14.62-27.23-24.34-46.33-24.98h-0.07c-0.65-0.02-1.31-0.04-1.96-0.04
	c-0.5,0-1,0.01-1.5,0.02h-0.02c-19.05,0.48-35.9,9.99-46.42,24.4c-0.05,0.07-0.11,0.15-0.16,0.22h0.29l0.02,0.03l43.29,0.18h0.05
	c0.08-0.01,0.17-0.02,0.25-0.03c1.38-0.17,2.78-0.25,4.2-0.25c1.52,0,3.02,0.1,4.49,0.29c0.08,0.01,0.15,0.02,0.23,0.04h0.01
	c16.93,2.31,30.02,16.86,30.02,34.43c0,19.16-15.59,34.75-34.75,34.75c-2.86,0-5.64-0.35-8.3-1.01l2.56,4.44l12.01,20.79
	c15.62-1.65,29.45-9.39,39.07-20.79c8.71-10.33,13.97-23.65,13.97-38.19C272.41,48.36,268.37,36.54,261.49,26.86z"/>
<path class="st1" d="M186.71,113.2c-0.23,0.23-0.45,0.45-0.68,0.68c0.5,0.26,1,0.51,1.51,0.74L186.71,113.2z M258.44,99.31
	c-7.85-3.34-16.49-5.18-25.55-5.18c-9.05,0-17.68,1.85-25.53,5.18l12.01,20.79l1.75,3.03c3.71-1.2,7.67-1.85,11.78-1.85
	c21.18,0,38.42,17.24,38.42,38.42c0,11.28-4.88,21.43-12.65,28.46l13.75,23.82c15.81-11.98,26.04-30.96,26.04-52.28
	C298.46,132.6,281.94,109.29,258.44,99.31z"/>
<polygon class="st1" points="150.93,1.55 150.82,1.55 150.87,1.45 "/>
<path class="st1" d="M165.17,26.22l0.13,0.22h-0.29C165.06,26.37,165.12,26.3,165.17,26.22z"/>
</svg>
